<svg width="144" height="144" viewBox="0 0 144 144" fill="none" xmlns="http://www.w3.org/2000/svg">
<path fill-rule="evenodd" clip-rule="evenodd" d="M143.09 94.0888C142.989 161.14 44.1997 141.725 6.67118 136.558C-3.58864 103.182 -9.82473 -4.39384 49.1404 0.139037C72.5956 0.139035 91.6097 19.1532 91.6097 42.6083V51.6196H100.621C124.076 51.6196 143.09 70.6337 143.09 94.0888Z" fill="url(#paint0_linear_35_369)"/>
<path d="M26.7452 108.726C24.6039 108.726 22.8145 108.286 21.3772 107.406C19.9692 106.526 18.9132 105.176 18.2092 103.358C17.5052 101.539 17.1532 99.2069 17.1532 96.3615C17.1532 93.5749 17.5199 91.2722 18.2532 89.4535C19.0159 87.6349 20.1159 86.2855 21.5532 85.4055C22.9905 84.5255 24.7212 84.0855 26.7452 84.0855C28.9159 84.0855 30.8812 84.5842 32.6412 85.5815C34.4305 86.5789 35.8385 88.0015 36.8652 89.8495C37.9212 91.6682 38.4492 93.8389 38.4492 96.3615C38.4492 98.9135 37.9212 101.114 36.8652 102.962C35.8385 104.78 34.4305 106.203 32.6412 107.23C30.8812 108.227 28.9159 108.726 26.7452 108.726ZM11.7412 108.33V75.6815H20.1012V88.4855L19.6612 96.3615L19.7052 104.238V108.33H11.7412ZM24.9852 102.082C25.9239 102.082 26.7599 101.862 27.4932 101.422C28.2559 100.982 28.8572 100.336 29.2972 99.4855C29.7665 98.6055 30.0012 97.5642 30.0012 96.3615C30.0012 95.1589 29.7665 94.1469 29.2972 93.3255C28.8572 92.4749 28.2559 91.8295 27.4932 91.3895C26.7599 90.9495 25.9239 90.7295 24.9852 90.7295C24.0465 90.7295 23.1959 90.9495 22.4332 91.3895C21.6999 91.8295 21.0985 92.4749 20.6292 93.3255C20.1892 94.1469 19.9692 95.1589 19.9692 96.3615C19.9692 97.5642 20.1892 98.6055 20.6292 99.4855C21.0985 100.336 21.6999 100.982 22.4332 101.422C23.1959 101.862 24.0465 102.082 24.9852 102.082Z" fill="white"/>
<path d="M52.367 108.726C50.431 108.726 48.6856 108.344 47.131 107.582C45.6056 106.819 44.403 105.631 43.523 104.018C42.6723 102.375 42.247 100.307 42.247 97.8135V84.4815H50.607V96.4495C50.607 98.2975 50.9443 99.6175 51.619 100.41C52.323 101.202 53.3056 101.598 54.567 101.598C55.3883 101.598 56.1363 101.407 56.811 101.026C57.4856 100.644 58.0283 100.043 58.439 99.2215C58.8496 98.3709 59.055 97.2855 59.055 95.9655V84.4815H67.415V108.33H59.451V101.598L60.991 103.49C60.1696 105.25 58.9816 106.57 57.427 107.45C55.8723 108.3 54.1856 108.726 52.367 108.726Z" fill="white"/>
<path d="M83.1838 108.726C81.0131 108.726 79.0331 108.227 77.2438 107.23C75.4838 106.203 74.0758 104.78 73.0198 102.962C71.9638 101.114 71.4358 98.9135 71.4358 96.3615C71.4358 93.8389 71.9638 91.6682 73.0198 89.8495C74.0758 88.0015 75.4838 86.5789 77.2438 85.5815C79.0331 84.5842 81.0131 84.0855 83.1838 84.0855C85.2371 84.0855 86.9678 84.5255 88.3758 85.4055C89.8131 86.2855 90.8985 87.6349 91.6318 89.4535C92.3651 91.2722 92.7318 93.5749 92.7318 96.3615C92.7318 99.2069 92.3798 101.539 91.6758 103.358C90.9718 105.176 89.9158 106.526 88.5078 107.406C87.0998 108.286 85.3251 108.726 83.1838 108.726ZM84.9438 102.082C85.8825 102.082 86.7185 101.862 87.4518 101.422C88.2145 100.982 88.8158 100.336 89.2558 99.4855C89.6958 98.6055 89.9158 97.5642 89.9158 96.3615C89.9158 95.1589 89.6958 94.1469 89.2558 93.3255C88.8158 92.4749 88.2145 91.8295 87.4518 91.3895C86.7185 90.9495 85.8825 90.7295 84.9438 90.7295C83.9758 90.7295 83.1105 90.9495 82.3478 91.3895C81.6145 91.8295 81.0278 92.4749 80.5878 93.3255C80.1478 94.1469 79.9278 95.1589 79.9278 96.3615C79.9278 97.5642 80.1478 98.6055 80.5878 99.4855C81.0278 100.336 81.6145 100.982 82.3478 101.422C83.1105 101.862 83.9758 102.082 84.9438 102.082ZM90.1798 108.33V104.238L90.2238 96.3615L89.7838 88.4855V75.6815H98.1438V108.33H90.1798Z" fill="white"/>
<path d="M113.554 108.726C111.618 108.726 109.873 108.344 108.318 107.582C106.793 106.819 105.59 105.631 104.71 104.018C103.86 102.375 103.434 100.307 103.434 97.8135V84.4815H111.794V96.4495C111.794 98.2975 112.132 99.6175 112.806 100.41C113.51 101.202 114.493 101.598 115.754 101.598C116.576 101.598 117.324 101.407 117.998 101.026C118.673 100.644 119.216 100.043 119.626 99.2215C120.037 98.3709 120.242 97.2855 120.242 95.9655V84.4815H128.602V108.33H120.638V101.598L122.178 103.49C121.357 105.25 120.169 106.57 118.614 107.45C117.06 108.3 115.373 108.726 113.554 108.726Z" fill="white"/>
<defs>
<linearGradient id="paint0_linear_35_369" x1="112.816" y1="144.463" x2="-0.602614" y2="31.0445" gradientUnits="userSpaceOnUse">
<stop stop-color="#FF0055"/>
<stop offset="1" stop-color="#FF661A"/>
</linearGradient>
</defs>
</svg>
