<svg width="64" height="64" viewBox="0 0 64 64" fill="none" xmlns="http://www.w3.org/2000/svg">
<path fill-rule="evenodd" clip-rule="evenodd" d="M31.5219 14.992C27.3198 14.992 26.8996 15.4377 24.7247 15.4377C22.9133 15.4377 17.4733 11 14.7562 11C12.0362 11 8.86476 12.5985 8.86476 17.2123V22.5358C8.87044 23.9327 9.37582 28.2143 11.3633 27.0701C9.01524 29.8469 8.77958 33.0864 8.81081 36.2209C8.17766 36.4027 7.53315 36.6099 6.90568 36.8229C4.96364 37.4872 2.90236 38.3333 1.97393 38.9353C1.49953 39.2417 1.16631 39.7241 1.04757 40.2763C0.928833 40.8284 1.0343 41.4051 1.34078 41.8795C1.64725 42.3539 2.12963 42.6872 2.68179 42.8059C3.23395 42.9246 3.81067 42.8192 4.28507 42.5127C4.72799 42.2259 6.33216 41.519 8.28271 40.8517L8.93006 40.6388C9.06066 41.8682 9.38718 42.9954 9.87269 44.0175L9.80454 44.0544C8.64046 44.6677 7.56155 45.3746 6.87445 45.8232L6.55362 46.0333C6.07922 46.3398 5.746 46.8222 5.62726 47.3744C5.50852 47.9265 5.61399 48.5032 5.92047 48.9776C6.22694 49.452 6.70932 49.7853 7.26148 49.904C7.81364 50.0227 8.39036 49.9173 8.86476 49.6108L9.2367 49.3666C9.93231 48.9123 10.8238 48.3303 11.7948 47.8192C12.022 47.6971 12.2406 47.5892 12.4507 47.4899C17.3626 52.098 26.1841 53.5886 31.5219 53.5886C36.8596 53.5886 45.6811 52.098 50.593 47.4899C50.8031 47.5892 51.0189 47.6971 51.2489 47.8192C52.2199 48.3303 53.1114 48.9123 53.807 49.3666L54.179 49.6108C54.6534 49.9173 55.2301 50.0227 55.7823 49.904C56.3344 49.7853 56.8168 49.452 57.1233 48.9776C57.4297 48.5032 57.5352 47.9265 57.4165 47.3744C57.2977 46.8222 56.9645 46.3398 56.4901 46.0333L56.1693 45.8232C55.2204 45.1887 54.2427 44.5984 53.2392 44.0544L53.1711 44.0175C53.6566 42.9954 53.9831 41.8682 54.1137 40.6388L54.761 40.8517C56.7116 41.519 58.3157 42.2259 58.7615 42.5127C59.2357 42.802 59.8041 42.8945 60.3456 42.7706C60.8871 42.6467 61.3587 42.3161 61.6598 41.8494C61.961 41.3826 62.0678 40.8167 61.9576 40.2723C61.8474 39.7279 61.5288 39.2481 61.0698 38.9353C60.1414 38.3333 58.0801 37.4872 56.1409 36.8229C55.5093 36.6076 54.8732 36.4059 54.2329 36.2181C54.267 33.0836 54.0285 29.8469 51.6776 27.0701C53.6651 28.2143 54.1761 23.9327 54.179 22.533V17.2123C54.179 12.5985 51.0076 11 48.2876 11C45.5704 11 40.1304 15.4377 38.3218 15.4377C36.1441 15.4377 35.7239 14.992 31.5219 14.992ZM29.6054 41.0959C30.1789 40.9 30.8575 40.812 31.5219 40.812C32.1862 40.812 32.8648 40.9 33.4412 41.0959C33.7251 41.1924 34.0658 41.3458 34.3725 41.5899C34.5827 41.7485 34.7546 41.9523 34.8755 42.1862C34.9964 42.4201 35.0632 42.6782 35.0709 42.9414C35.0709 43.5944 34.6763 44.0487 34.3725 44.2929C34.0687 44.5371 33.7223 44.6904 33.4412 44.7869C32.8206 44.9833 32.1727 45.0791 31.5219 45.0708C30.872 45.0793 30.2249 44.9835 29.6054 44.7869C29.2677 44.6776 28.9516 44.5105 28.6713 44.2929C28.461 44.1343 28.2891 43.9306 28.1682 43.6966C28.0473 43.4627 27.9806 43.2046 27.9728 42.9414C27.9728 42.2884 28.3675 41.8341 28.6713 41.5899C28.9751 41.3458 29.3243 41.1924 29.6054 41.0959ZM37.683 32.2943C38.072 31.6469 38.8357 30.8747 39.9828 30.8747C41.1298 30.8747 41.8964 31.6469 42.2826 32.2943C42.6857 32.9729 42.8788 33.7906 42.8788 34.6026C42.8788 35.4118 42.6857 36.2295 42.2826 36.9052C41.8964 37.5554 41.1298 38.3277 39.9828 38.3277C38.8357 38.3277 38.072 37.5554 37.683 36.908C37.2823 36.2064 37.0764 35.4105 37.0868 34.6026C37.0868 33.7906 37.2798 32.9729 37.683 32.2971M20.7612 32.2971C21.1501 31.6498 21.9139 30.8775 23.0609 30.8775C24.208 30.8775 24.9746 31.6498 25.3607 32.2971C25.7639 32.9757 25.957 33.7934 25.957 34.6054C25.957 35.4146 25.7639 36.2323 25.3607 36.908C24.9746 37.5582 24.208 38.3305 23.0609 38.3305C21.9139 38.3305 21.1501 37.5582 20.7612 36.9109C20.3604 36.2093 20.1546 35.4133 20.1649 34.6054C20.1649 33.7934 20.358 32.9729 20.7612 32.2971Z" fill="black"/>
</svg>
